<?xml version="1.0" standalone="no"?>
<svg xmlns:xlink="http://www.w3.org/1999/xlink" id="wave" style="transform:rotate(0deg); transition: 0.3s" viewBox="0 0 1440 100" version="1.1" xmlns="http://www.w3.org/2000/svg"><defs><linearGradient id="sw-gradient-0" x1="0" x2="0" y1="1" y2="0"><stop stop-color="rgba(18, 79, 136, 1)" offset="0%"/><stop stop-color="rgba(18, 79, 136, 1)" offset="100%"/></linearGradient></defs><path style="transform:translate(0, 0px); opacity:1" fill="url(#sw-gradient-0)" d="M0,80L80,80C160,80,320,80,480,75C640,70,800,60,960,46.7C1120,33,1280,17,1440,16.7C1600,17,1760,33,1920,41.7C2080,50,2240,50,2400,56.7C2560,63,2720,77,2880,83.3C3040,90,3200,90,3360,85C3520,80,3680,70,3840,56.7C4000,43,4160,27,4320,28.3C4480,30,4640,50,4800,51.7C4960,53,5120,37,5280,30C5440,23,5600,27,5760,26.7C5920,27,6080,23,6240,23.3C6400,23,6560,27,6720,26.7C6880,27,7040,23,7200,33.3C7360,43,7520,67,7680,68.3C7840,70,8000,50,8160,48.3C8320,47,8480,63,8640,60C8800,57,8960,33,9120,35C9280,37,9440,63,9600,76.7C9760,90,9920,90,10080,81.7C10240,73,10400,57,10560,51.7C10720,47,10880,53,11040,53.3C11200,53,11360,47,11440,43.3L11520,40L11520,100L11440,100C11360,100,11200,100,11040,100C10880,100,10720,100,10560,100C10400,100,10240,100,10080,100C9920,100,9760,100,9600,100C9440,100,9280,100,9120,100C8960,100,8800,100,8640,100C8480,100,8320,100,8160,100C8000,100,7840,100,7680,100C7520,100,7360,100,7200,100C7040,100,6880,100,6720,100C6560,100,6400,100,6240,100C6080,100,5920,100,5760,100C5600,100,5440,100,5280,100C5120,100,4960,100,4800,100C4640,100,4480,100,4320,100C4160,100,4000,100,3840,100C3680,100,3520,100,3360,100C3200,100,3040,100,2880,100C2720,100,2560,100,2400,100C2240,100,2080,100,1920,100C1760,100,1600,100,1440,100C1280,100,1120,100,960,100C800,100,640,100,480,100C320,100,160,100,80,100L0,100Z"/></svg>